<svg width="14" height="14" viewBox="0 0 14 14" fill="none" xmlns="http://www.w3.org/2000/svg">
<path d="M8.12571 13H5.87467C5.73363 13 5.59682 12.9533 5.48693 12.8675C5.37703 12.7817 5.30066 12.6621 5.27048 12.5284L5.01879 11.398C4.68302 11.2553 4.36465 11.0768 4.06952 10.8658L2.93349 11.2168C2.79902 11.2584 2.65393 11.2541 2.52232 11.2047C2.3907 11.1552 2.28047 11.0636 2.20994 10.945L1.08195 9.0544C1.01216 8.93568 0.985964 8.79749 1.00765 8.66245C1.02933 8.52741 1.0976 8.4035 1.20131 8.311L2.08255 7.531C2.04247 7.17767 2.04247 6.82113 2.08255 6.4678L1.20131 5.6896C1.09746 5.59706 1.02909 5.47305 1.0074 5.33787C0.985717 5.20269 1.012 5.06438 1.08195 4.9456L2.20747 3.0538C2.278 2.93519 2.38823 2.84355 2.51984 2.79411C2.65146 2.74467 2.79655 2.7404 2.93102 2.782L4.06704 3.133C4.21794 3.025 4.37502 2.9242 4.53704 2.833C4.6935 2.7478 4.85429 2.6704 5.01879 2.6014L5.2711 1.4722C5.30114 1.33852 5.37736 1.21881 5.48714 1.13293C5.59692 1.04705 5.73365 1.00014 5.87467 1H8.12571C8.26673 1.00014 8.40346 1.04705 8.51324 1.13293C8.62302 1.21881 8.69924 1.33852 8.72928 1.4722L8.98407 2.602C9.15722 2.6764 9.32667 2.7598 9.49055 2.8528C9.6433 2.9386 9.7911 3.0328 9.93333 3.1342L11.07 2.7832C11.2044 2.74175 11.3493 2.7461 11.4808 2.79554C11.6123 2.84497 11.7224 2.93652 11.7929 3.055L12.9184 4.9468C13.0619 5.191 13.0124 5.5 12.7991 5.6902L11.9178 6.4702C11.9579 6.82353 11.9579 7.18007 11.9178 7.5334L12.7991 8.3134C13.0124 8.5042 13.0619 8.8126 12.9184 9.0568L11.7929 10.9486C11.7224 11.0672 11.6122 11.1588 11.4805 11.2083C11.3489 11.2577 11.2038 11.262 11.0694 11.2204L9.93333 10.8694C9.63843 11.0802 9.32026 11.2585 8.98469 11.401L8.72928 12.5284C8.69912 12.662 8.62284 12.7815 8.51307 12.8673C8.40331 12.9531 8.26664 12.9999 8.12571 13V13ZM6.99772 4.6C6.34166 4.6 5.71247 4.85286 5.24857 5.30294C4.78467 5.75303 4.52405 6.36348 4.52405 7C4.52405 7.63652 4.78467 8.24697 5.24857 8.69706C5.71247 9.14714 6.34166 9.4 6.99772 9.4C7.65377 9.4 8.28296 9.14714 8.74686 8.69706C9.21076 8.24697 9.47138 7.63652 9.47138 7C9.47138 6.36348 9.21076 5.75303 8.74686 5.30294C8.28296 4.85286 7.65377 4.6 6.99772 4.6V4.6Z" stroke="#0C66CF" stroke-width="1.2"/>
</svg>
